<svg width="36" height="37" viewBox="0 0 36 37" fill="none" xmlns="http://www.w3.org/2000/svg">
<path opacity="0.3" fill-rule="evenodd" clip-rule="evenodd" d="M30 21.7926V3.92871C25.0294 3.92871 21 7.95815 21 12.9287V19.0707L11.7427 9.88334C9.3995 12.2088 9.3995 15.979 11.7426 18.3045L19.4669 25.9703L23.6764 21.7926H30Z" fill="#99EFD0"/>
<path fill-rule="evenodd" clip-rule="evenodd" d="M6.5 18.8154C3.73858 18.8154 1.5 21.054 1.5 23.8154V27.2133C1.5 29.9748 3.73858 32.2133 6.5 32.2133H29.5C32.2614 32.2133 34.5 29.9748 34.5 27.2133V23.8154C34.5 21.054 32.2614 18.8154 29.5 18.8154H6.5ZM31.5 25.5144C31.5 26.7476 30.4926 27.7474 29.25 27.7474C28.0074 27.7474 27 26.7476 27 25.5144C27 24.2811 28.0074 23.2814 29.25 23.2814C30.4926 23.2814 31.5 24.2811 31.5 25.5144Z" fill="#99EFD0"/>
</svg>
