<svg width="36" height="37" viewBox="0 0 36 37" fill="none" xmlns="http://www.w3.org/2000/svg">
<path opacity="0.3" fill-rule="evenodd" clip-rule="evenodd" d="M10.8843 29.1304L8.96833 31.4214C5.21539 28.3302 3 23.7507 3 18.8152C3 13.8866 5.20923 9.31276 8.95328 6.22144L10.872 8.51022C7.8059 11.0418 6 14.7806 6 18.8152C6 22.8554 7.81094 26.5989 10.8843 29.1304ZM25.1157 29.1304L27.0317 31.4214C30.7846 28.3302 33 23.7507 33 18.8152C33 13.8866 30.7908 9.31276 27.0467 6.22144L25.128 8.51022C28.1941 11.0418 30 14.7806 30 18.8152C30 22.8554 28.1891 26.5989 25.1157 29.1304ZM21.2677 24.5613L23.1763 26.8584C25.5793 24.8919 27 21.9672 27 18.8152C27 15.6735 25.5886 12.7575 23.1992 10.7908L21.2841 13.0825C22.9934 14.4894 24 16.5691 24 18.8152C24 21.0687 22.9868 23.1545 21.2677 24.5613ZM12.8237 26.8584L14.7323 24.5613C13.0132 23.1545 12 21.0687 12 18.8152C12 16.5691 13.0066 14.4894 14.7159 13.0825L12.8008 10.7908C10.4114 12.7575 9 15.6735 9 18.8152C9 21.9672 10.4207 24.8919 12.8237 26.8584Z" fill="#99EFD0"/>
<path fill-rule="evenodd" clip-rule="evenodd" d="M18 21.7925C19.6569 21.7925 21 20.4595 21 18.8152C21 17.1709 19.6569 15.8379 18 15.8379C16.3431 15.8379 15 17.1709 15 18.8152C15 20.4595 16.3431 21.7925 18 21.7925Z" fill="#99EFD0"/>
</svg>
